<svg width="512" height="512" viewBox="0 0 512 512" fill="none" xmlns="http://www.w3.org/2000/svg">
<path d="M97 512L285.105 507.018C315.365 467.928 350.641 427.436 410.924 379.953L414.661 221.745C360.589 432.217 245.192 508.096 97 512Z" fill="url(#paint0_linear_3_52)"/>
<path d="M257.699 358.775C257.699 358.775 197.904 463.416 199.15 463.416C200.396 463.416 346.146 280.294 346.146 280.294C296.181 342.273 189.528 359.547 184.201 301.471C186.992 286.181 193.098 276.185 210.362 261.608C248.429 268.29 265.77 246.39 273.894 211.778L209.116 246.659C195.654 200.893 218.445 153.788 277.631 132.052C285.834 115.045 289.252 69.2134 270.157 46.0963C304.946 63.1316 328.168 88.6511 328.706 130.806C360.392 131.713 384.52 150.147 403.45 180.635C357.927 57.6327 290.819 -0.568955 204.133 0.00419111C254.836 33.917 273.156 75.0999 248.979 125.823C190.2 149.302 165.576 192.356 177.973 256.625C164.359 274.285 149.849 287.618 133.126 290.259C157.256 367.454 208.586 359.649 257.699 358.775Z" fill="url(#paint1_linear_3_52)"/>
<path d="M186.693 153.229C204.362 131.084 223.084 114.535 243.996 109.628C228.045 61.3199 198.075 39.4952 153.058 46.096C197.364 76.9972 206.889 112.953 186.693 153.229Z" fill="url(#paint2_linear_3_52)"/>
<defs>
<linearGradient id="paint0_linear_3_52" x1="97" y1="366.873" x2="414.661" y2="366.873" gradientUnits="userSpaceOnUse">
<stop offset="0.48951" stop-color="#F1FF21"/>
<stop offset="1" stop-color="#AAA100"/>
</linearGradient>
<linearGradient id="paint1_linear_3_52" x1="133.126" y1="231.708" x2="403.45" y2="231.708" gradientUnits="userSpaceOnUse">
<stop offset="0.43471" stop-color="#F1FF21"/>
<stop offset="1" stop-color="#AAA100"/>
</linearGradient>
<linearGradient id="paint2_linear_3_52" x1="153.058" y1="99.0861" x2="243.996" y2="99.0861" gradientUnits="userSpaceOnUse">
<stop offset="0.23441" stop-color="#F1FF21"/>
<stop offset="0.91622" stop-color="#AAA100"/>
</linearGradient>
</defs>
</svg>
